<svg xmlns="http://www.w3.org/2000/svg" width="28.229" height="24" viewBox="0 0 28.229 24">
  <g id="Group_6753" data-name="Group 6753" transform="translate(-1687.5 -2974.415)">
    <path id="Path_3200" data-name="Path 3200" d="M1706.456,2998.415h-18.545a.41.41,0,0,1-.411-.409v-23.182a.41.41,0,0,1,.411-.409h12.69l6.265,6.235v17.356A.41.41,0,0,1,1706.456,2998.415Z" fill="#a5aaaa"/>
    <rect id="Rectangle_3071" data-name="Rectangle 3071" width="13.798" height="3.57" transform="translate(1704.144 2988.09) rotate(-57.165)" fill="#753617"/>
    <path id="Path_3201" data-name="Path 3201" d="M2246.318,2974.721l-.03-.019a1.767,1.767,0,0,0-2.443.526l-.821,1.272,3,1.936.821-1.271A1.767,1.767,0,0,0,2246.318,2974.721Z" transform="translate(-531.399 -0.004)" fill="#ef4f32"/>
    <rect id="Rectangle_3072" data-name="Rectangle 3072" width="0.627" height="3.57" transform="translate(1711.286 2977.023) rotate(-57.166)" fill="#fcee3b"/>
    <path id="Path_3202" data-name="Path 3202" d="M2178.874,3017.388l-.014-.009a.812.812,0,0,1-.242-1.122l3.933-6.095a.812.812,0,0,1,1.122-.242l.014.009a.812.812,0,0,1,.242,1.123l-3.933,6.094A.812.812,0,0,1,2178.874,3017.388Z" transform="translate(-469.665 -33.839)" fill="#ffc633"/>
    <path id="Path_3203" data-name="Path 3203" d="M2045.38,3293.9l-1-.646,1.145-3.969,3,1.936Z" transform="translate(-341.381 -301.282)" fill="#b5bebf"/>
    <path id="Path_3204" data-name="Path 3204" d="M2074.047,3280.644l-3-1.936-.3.459,3,1.936Z" transform="translate(-366.607 -291.149)" fill="#8b8a8a"/>
    <path id="Path_3205" data-name="Path 3205" d="M2034.32,3382.188l0,0a.352.352,0,0,1-.137-.422l.42-1.079.973.628-.81.827A.351.351,0,0,1,2034.32,3382.188Z" transform="translate(-331.6 -388.717)" fill="#5c5b5b"/>
    <path id="Path_3206" data-name="Path 3206" d="M1989.731,2980.681h5.71l-6.265-6.266v5.71A.556.556,0,0,0,1989.731,2980.681Z" transform="translate(-288.574)" fill="#c5cccc"/>
    <rect id="Rectangle_3073" data-name="Rectangle 3073" width="10.931" height="1" transform="translate(1691.718 2982.668)" fill="#fff"/>
    <rect id="Rectangle_3074" data-name="Rectangle 3074" width="8.389" height="1" transform="translate(1691.718 2984.91)" fill="#fff"/>
    <rect id="Rectangle_3075" data-name="Rectangle 3075" width="8.389" height="1" transform="translate(1691.718 2989.996)" fill="#fff"/>
    <rect id="Rectangle_3076" data-name="Rectangle 3076" width="9.577" height="1" transform="translate(1691.718 2992.773)" fill="#fff"/>
  </g>
</svg>
